M48
;Layer_Color=9474304
;FILE_FORMAT=4:4
METRIC,LZ
;TYPE=PLATED
T01F00S00C0.3000
T02F00S00C1.0000
T04F00S00C3.0000
;TYPE=NON_PLATED
T05F00S00C1.5000
%
T01
X009925Y00785
X0102
X01035
X010825
X010075Y008
X009475Y00795
X009325
X009092
X008775Y008025
X00895Y009175
Y0094
Y009675
X008775
X00865
X0085
X00895Y009875
Y010125
X0088Y010375
X008675
X008925Y0106
X009125
X00935Y0105
X0092Y010925
X008875
X008625Y011
X008825Y011425
X009125Y01125
X009225Y01135
X009325Y01145
X00965
X00985
X010175Y0113
X010125Y0105
X01025Y010375
X010425Y0106
X010775Y0104
X010925Y0105
X0112Y01035
X011725Y010425
X011825Y010525
X011725Y011175
X01175Y01145
X0114Y011375
X01135Y0094
X01185Y009375
X011575Y008925
Y00875
X01095
Y008925
X010875Y00965
X0104
X010125
X009775Y0094
X009325Y009325
Y009125
Y009525
X01Y0088
X01015Y0087
X0082Y010675
X0081Y010775
X00915Y0117
Y011825
X0121Y01115
X01205Y0109
X0121Y010325
X0122Y01005
X013075Y010225
X0129Y010625
X013Y01079656
X01285Y01095
X013Y011125
X0127Y0114
X013Y011725
Y012325
X0118Y012075
X009775Y0122
X009125Y012175
T02
X0082Y011142
X008454
Y011396
Y01165
Y011904
X0082
Y01165
Y011396
Y012158
X008454
T04
X0137Y0078
Y0125
X008
T05
X008175Y00815
Y0086
M30
