G04*
G04 #@! TF.GenerationSoftware,Altium Limited,Altium Designer,24.4.1 (13)*
G04*
G04 Layer_Color=32896*
%FSLAX44Y44*%
%MOMM*%
G71*
G04*
G04 #@! TF.SameCoordinates,79D782BA-BD90-4D4D-B637-5DB34664487F*
G04*
G04*
G04 #@! TF.FilePolarity,Positive*
G04*
G01*
G75*
%ADD11C,0.2000*%
%ADD12C,0.2500*%
%ADD13C,0.2540*%
%ADD61C,0.6000*%
D11*
X996500Y946500D02*
X1128500D01*
X996500Y1078500D02*
X1128500D01*
X996500Y946500D02*
Y1078500D01*
X1128500Y946500D02*
Y1078500D01*
X1044000Y886000D02*
X1046000D01*
X1044000Y894000D02*
X1046000D01*
X1109000Y1128500D02*
X1111000D01*
X1109000Y1136500D02*
X1111000D01*
X991500Y1136500D02*
X993500D01*
X991500Y1128500D02*
X993500D01*
X1044000Y1136500D02*
X1046000D01*
X1044000Y1128500D02*
X1046000D01*
X1209000Y1066500D02*
Y1068500D01*
X1201000Y1066500D02*
Y1068500D01*
X1201000Y994000D02*
Y996000D01*
X1209000Y994000D02*
Y996000D01*
X1201000Y954000D02*
Y956000D01*
X1209000Y954000D02*
Y956000D01*
X1011500Y846500D02*
Y848500D01*
X1003500Y846500D02*
Y848500D01*
X971000Y846500D02*
Y848500D01*
X979000Y846500D02*
Y848500D01*
X1134000Y861000D02*
X1136000D01*
X1134000Y869000D02*
X1136000D01*
X1134000Y901000D02*
X1136000D01*
X1134000Y909000D02*
X1136000D01*
X973500Y896500D02*
Y898500D01*
X981500Y896500D02*
Y898500D01*
X1004000Y1193750D02*
X1096000D01*
X1004000Y1156250D02*
X1096000D01*
X1134000Y881000D02*
X1136000D01*
X1134000Y889000D02*
X1136000D01*
X1134000Y841000D02*
X1136000D01*
X1134000Y849000D02*
X1136000D01*
X941500Y1076000D02*
X943500D01*
X941500Y1068000D02*
X943500D01*
X1231250Y964000D02*
Y1056000D01*
X1268750Y964000D02*
Y1056000D01*
D12*
X1140750Y1080000D02*
G03*
X1140750Y1080000I-1250J0D01*
G01*
D13*
X1003808Y1122167D02*
Y1106932D01*
X996190D01*
X993651Y1109471D01*
Y1119628D01*
X996190Y1122167D01*
X1003808D01*
X980955Y1106932D02*
Y1122167D01*
X988573Y1114549D01*
X978416D01*
X916668Y1077831D02*
X915002Y1079498D01*
Y1082830D01*
X916668Y1084496D01*
X923332D01*
X924998Y1082830D01*
Y1079498D01*
X923332Y1077831D01*
X924998Y1074499D02*
Y1071167D01*
Y1072833D01*
X915002D01*
X916668Y1074499D01*
Y1066169D02*
X915002Y1064502D01*
Y1061170D01*
X916668Y1059504D01*
X923332D01*
X924998Y1061170D01*
Y1064502D01*
X923332Y1066169D01*
X916668D01*
X998474Y1218687D02*
Y1216148D01*
X993396Y1211069D01*
X988317Y1216148D01*
Y1218687D01*
X993396Y1211069D02*
Y1203452D01*
X983239Y1216148D02*
X980700Y1218687D01*
X975621D01*
X973082Y1216148D01*
Y1213609D01*
X975621Y1211069D01*
X978161D01*
X975621D01*
X973082Y1208530D01*
Y1205991D01*
X975621Y1203452D01*
X980700D01*
X983239Y1205991D01*
X1262696Y1109808D02*
Y1107268D01*
X1257617Y1102190D01*
X1252539Y1107268D01*
Y1109808D01*
X1257617Y1102190D02*
Y1094573D01*
X1237304D02*
X1247461D01*
X1237304Y1104729D01*
Y1107268D01*
X1239843Y1109808D01*
X1244922D01*
X1247461Y1107268D01*
X1015831Y865002D02*
Y874998D01*
X1010832D01*
X1009166Y873332D01*
Y870000D01*
X1010832Y868334D01*
X1015831D01*
X1012498D02*
X1009166Y865002D01*
X1005834Y873332D02*
X1004168Y874998D01*
X1000835D01*
X999169Y873332D01*
Y871666D01*
X1000835Y870000D01*
X999169Y868334D01*
Y866668D01*
X1000835Y865002D01*
X1004168D01*
X1005834Y866668D01*
Y868334D01*
X1004168Y870000D01*
X1005834Y871666D01*
Y873332D01*
X1004168Y870000D02*
X1000835D01*
X1036669Y879998D02*
Y870002D01*
X1041668D01*
X1043334Y871668D01*
Y875000D01*
X1041668Y876666D01*
X1036669D01*
X1040002D02*
X1043334Y879998D01*
X1046666Y870002D02*
X1053331D01*
Y871668D01*
X1046666Y878332D01*
Y879998D01*
X1213331Y1015012D02*
Y1025008D01*
X1208332D01*
X1206666Y1023342D01*
Y1020010D01*
X1208332Y1018344D01*
X1213331D01*
X1209998D02*
X1206666Y1015012D01*
X1196669Y1025008D02*
X1200002Y1023342D01*
X1203334Y1020010D01*
Y1016678D01*
X1201668Y1015012D01*
X1198335D01*
X1196669Y1016678D01*
Y1018344D01*
X1198335Y1020010D01*
X1203334D01*
X1036669Y1122498D02*
Y1112502D01*
X1041668D01*
X1043334Y1114168D01*
Y1117500D01*
X1041668Y1119166D01*
X1036669D01*
X1040002D02*
X1043334Y1122498D01*
X1053331Y1112502D02*
X1046666D01*
Y1117500D01*
X1049998Y1115834D01*
X1051665D01*
X1053331Y1117500D01*
Y1120832D01*
X1051665Y1122498D01*
X1048332D01*
X1046666Y1120832D01*
X1110832Y908332D02*
X1112498Y909998D01*
X1115830D01*
X1117496Y908332D01*
Y901668D01*
X1115830Y900002D01*
X1112498D01*
X1110832Y901668D01*
X1107499Y900002D02*
X1104167D01*
X1105833D01*
Y909998D01*
X1107499Y908332D01*
X1099168D02*
X1097502Y909998D01*
X1094170D01*
X1092504Y908332D01*
Y906666D01*
X1094170Y905000D01*
X1092504Y903334D01*
Y901668D01*
X1094170Y900002D01*
X1097502D01*
X1099168Y901668D01*
Y903334D01*
X1097502Y905000D01*
X1099168Y906666D01*
Y908332D01*
X1097502Y905000D02*
X1094170D01*
X1096668Y881668D02*
X1095002Y880002D01*
X1091670D01*
X1090004Y881668D01*
Y888332D01*
X1091670Y889998D01*
X1095002D01*
X1096668Y888332D01*
X1100001Y889998D02*
X1103333D01*
X1101667D01*
Y880002D01*
X1100001Y881668D01*
X1108331Y880002D02*
X1114996D01*
Y881668D01*
X1108331Y888332D01*
Y889998D01*
X1135832Y1126668D02*
X1137498Y1125002D01*
Y1121670D01*
X1135832Y1120004D01*
X1129168D01*
X1127502Y1121670D01*
Y1125002D01*
X1129168Y1126668D01*
X1127502Y1130001D02*
Y1133333D01*
Y1131667D01*
X1137498D01*
X1135832Y1130001D01*
X1137498Y1144996D02*
X1135832Y1141664D01*
X1132500Y1138331D01*
X1129168D01*
X1127502Y1139997D01*
Y1143330D01*
X1129168Y1144996D01*
X1130834D01*
X1132500Y1143330D01*
Y1138331D01*
X966668Y1138332D02*
X965002Y1139998D01*
Y1143330D01*
X966668Y1144996D01*
X973332D01*
X974998Y1143330D01*
Y1139998D01*
X973332Y1138332D01*
X974998Y1134999D02*
Y1131667D01*
Y1133333D01*
X965002D01*
X966668Y1134999D01*
X965002Y1120004D02*
Y1126668D01*
X970000D01*
X968334Y1123336D01*
Y1121670D01*
X970000Y1120004D01*
X973332D01*
X974998Y1121670D01*
Y1125002D01*
X973332Y1126668D01*
X1110832Y868332D02*
X1112498Y869998D01*
X1115830D01*
X1117496Y868332D01*
Y861668D01*
X1115830Y860002D01*
X1112498D01*
X1110832Y861668D01*
X1107499Y860002D02*
X1104167D01*
X1105833D01*
Y869998D01*
X1107499Y868332D01*
X1094170Y860002D02*
Y869998D01*
X1099168Y865000D01*
X1092504D01*
X1096668Y841668D02*
X1095002Y840002D01*
X1091670D01*
X1090004Y841668D01*
Y848332D01*
X1091670Y849998D01*
X1095002D01*
X1096668Y848332D01*
X1100001Y849998D02*
X1103333D01*
X1101667D01*
Y840002D01*
X1100001Y841668D01*
X1108331D02*
X1109998Y840002D01*
X1113330D01*
X1114996Y841668D01*
Y843334D01*
X1113330Y845000D01*
X1111664D01*
X1113330D01*
X1114996Y846666D01*
Y848332D01*
X1113330Y849998D01*
X1109998D01*
X1108331Y848332D01*
X980832Y921668D02*
X982498Y920002D01*
Y916670D01*
X980832Y915004D01*
X974168D01*
X972502Y916670D01*
Y920002D01*
X974168Y921668D01*
X972502Y925001D02*
Y928333D01*
Y926667D01*
X982498D01*
X980832Y925001D01*
X972502Y939996D02*
Y933331D01*
X979166Y939996D01*
X980832D01*
X982498Y938330D01*
Y934997D01*
X980832Y933331D01*
X979165Y873332D02*
X980831Y874998D01*
X984164D01*
X985830Y873332D01*
Y866668D01*
X984164Y865002D01*
X980831D01*
X979165Y866668D01*
X975833Y865002D02*
X972501D01*
X974167D01*
Y874998D01*
X975833Y873332D01*
X967502Y865002D02*
X964170D01*
X965836D01*
Y874998D01*
X967502Y873332D01*
X1202064Y929688D02*
X1200398Y928021D01*
X1197065D01*
X1195399Y929688D01*
Y936352D01*
X1197065Y938018D01*
X1200398D01*
X1202064Y936352D01*
X1205396D02*
X1207062Y938018D01*
X1210395D01*
X1212061Y936352D01*
Y929688D01*
X1210395Y928021D01*
X1207062D01*
X1205396Y929688D01*
Y931354D01*
X1207062Y933020D01*
X1212061D01*
X1203334Y1041698D02*
X1201668Y1040032D01*
X1198335D01*
X1196669Y1041698D01*
Y1048362D01*
X1198335Y1050028D01*
X1201668D01*
X1203334Y1048362D01*
X1206666Y1041698D02*
X1208332Y1040032D01*
X1211665D01*
X1213331Y1041698D01*
Y1043364D01*
X1211665Y1045030D01*
X1213331Y1046696D01*
Y1048362D01*
X1211665Y1050028D01*
X1208332D01*
X1206666Y1048362D01*
Y1046696D01*
X1208332Y1045030D01*
X1206666Y1043364D01*
Y1041698D01*
X1208332Y1045030D02*
X1211665D01*
D61*
X1121500Y1068500D02*
G03*
X1121500Y1068500I-3000J0D01*
G01*
M02*
