G04*
G04 #@! TF.GenerationSoftware,Altium Limited,Altium Designer,24.4.1 (13)*
G04*
G04 Layer_Color=8388736*
%FSLAX44Y44*%
%MOMM*%
G71*
G04*
G04 #@! TF.SameCoordinates,79D782BA-BD90-4D4D-B637-5DB34664487F*
G04*
G04*
G04 #@! TF.FilePolarity,Negative*
G04*
G01*
G75*
%ADD14R,3.7032X0.6032*%
%ADD15R,0.9532X1.2032*%
%ADD16R,2.9032X1.2032*%
%ADD17O,1.0532X1.6532*%
%ADD18R,1.0532X1.6532*%
%ADD19R,3.0532X4.1532*%
%ADD20R,1.2032X0.9532*%
%ADD21R,1.0032X0.9032*%
%ADD22R,1.0032X0.9032*%
%ADD23R,2.3532X3.4532*%
%ADD24R,2.3532X1.2032*%
%ADD25R,0.9532X1.6032*%
%ADD26R,3.3532X2.7032*%
%ADD27O,2.4000X1.9400*%
%ADD28R,2.4000X1.9400*%
G04:AMPARAMS|DCode=29|XSize=4.2032mm|YSize=1.7032mm|CornerRadius=0.4766mm|HoleSize=0mm|Usage=FLASHONLY|Rotation=180.000|XOffset=0mm|YOffset=0mm|HoleType=Round|Shape=RoundedRectangle|*
%AMROUNDEDRECTD29*
21,1,4.2032,0.7500,0,0,180.0*
21,1,3.2500,1.7032,0,0,180.0*
1,1,0.9532,-1.6250,0.3750*
1,1,0.9532,1.6250,0.3750*
1,1,0.9532,1.6250,-0.3750*
1,1,0.9532,-1.6250,-0.3750*
%
%ADD29ROUNDEDRECTD29*%
%ADD30C,1.7032*%
%ADD31C,3.2032*%
%ADD32C,1.0032*%
%ADD33C,0.9032*%
D14*
X1335000Y1018500D02*
D03*
Y1025500D02*
D03*
Y1032500D02*
D03*
Y1039500D02*
D03*
Y1046500D02*
D03*
Y1053500D02*
D03*
Y1060500D02*
D03*
Y1067500D02*
D03*
Y1074500D02*
D03*
Y1081500D02*
D03*
Y1088500D02*
D03*
Y1095500D02*
D03*
Y1102500D02*
D03*
Y1109500D02*
D03*
Y1116500D02*
D03*
Y1123500D02*
D03*
Y1130500D02*
D03*
Y1137500D02*
D03*
Y1144500D02*
D03*
Y1151500D02*
D03*
Y1158500D02*
D03*
Y1165500D02*
D03*
Y1172500D02*
D03*
Y1179500D02*
D03*
Y1186500D02*
D03*
Y1193500D02*
D03*
Y1200500D02*
D03*
Y1207500D02*
D03*
Y1214500D02*
D03*
Y1221500D02*
D03*
D15*
X1018500Y767500D02*
D03*
X1001500D02*
D03*
X871500Y1112500D02*
D03*
X888500D02*
D03*
X881500Y1225000D02*
D03*
X898500D02*
D03*
X1046500Y767500D02*
D03*
X1063500D02*
D03*
X1094000D02*
D03*
X1111000D02*
D03*
X1246000Y1157500D02*
D03*
X1229000D02*
D03*
X1246000Y1127500D02*
D03*
X1229000D02*
D03*
X1246000Y1055000D02*
D03*
X1229000D02*
D03*
X1246000Y1020000D02*
D03*
X1229000D02*
D03*
X1229000Y990000D02*
D03*
X1246000D02*
D03*
X1229000Y960000D02*
D03*
X1246000D02*
D03*
X881500Y1197500D02*
D03*
X898500D02*
D03*
X871500Y1077500D02*
D03*
X888500D02*
D03*
D16*
X790500Y827500D02*
D03*
Y802500D02*
D03*
Y847500D02*
D03*
Y872500D02*
D03*
D17*
X985400Y870000D02*
D03*
X972700D02*
D03*
X960000D02*
D03*
X947300D02*
D03*
X934600D02*
D03*
X921900D02*
D03*
X909200D02*
D03*
X896500D02*
D03*
X985400Y815500D02*
D03*
X972700D02*
D03*
X960000D02*
D03*
X947300D02*
D03*
X934600D02*
D03*
X921900D02*
D03*
X909200D02*
D03*
D18*
X896500D02*
D03*
D19*
X1043250Y845000D02*
D03*
X1171750D02*
D03*
D20*
X1172500Y896500D02*
D03*
Y913500D02*
D03*
X1075000Y896500D02*
D03*
Y913500D02*
D03*
X1237500Y1201000D02*
D03*
Y1184000D02*
D03*
Y1231000D02*
D03*
Y1214000D02*
D03*
X1245000Y1098500D02*
D03*
Y1081500D02*
D03*
X992500Y924000D02*
D03*
Y941000D02*
D03*
X962500Y924000D02*
D03*
Y941000D02*
D03*
X882500Y1176000D02*
D03*
Y1159000D02*
D03*
X1205000Y1208500D02*
D03*
Y1191500D02*
D03*
X980000Y1174000D02*
D03*
Y1191000D02*
D03*
X1107500Y1174000D02*
D03*
Y1191000D02*
D03*
X980000Y1086500D02*
D03*
Y1103500D02*
D03*
X1107500Y1084000D02*
D03*
Y1101000D02*
D03*
X1105000Y994000D02*
D03*
Y1011000D02*
D03*
X980000Y991500D02*
D03*
Y1008500D02*
D03*
D21*
X847500Y1012500D02*
D03*
X832500D02*
D03*
X817500D02*
D03*
Y1027500D02*
D03*
X847500Y1042500D02*
D03*
X832500D02*
D03*
D22*
X817500D02*
D03*
D23*
X1013250Y1002500D02*
D03*
Y1185000D02*
D03*
Y1095000D02*
D03*
D24*
X1071750Y1025500D02*
D03*
Y1002500D02*
D03*
Y979500D02*
D03*
Y1208000D02*
D03*
Y1185000D02*
D03*
Y1162000D02*
D03*
Y1118000D02*
D03*
Y1095000D02*
D03*
Y1072000D02*
D03*
D25*
X1205500Y1165000D02*
D03*
X1184500D02*
D03*
D26*
X1145000Y1209250D02*
D03*
Y1165750D02*
D03*
X942500Y1116750D02*
D03*
Y1073250D02*
D03*
X1145000Y1116750D02*
D03*
Y1073250D02*
D03*
Y1024250D02*
D03*
Y980750D02*
D03*
X942500Y1021500D02*
D03*
Y978000D02*
D03*
Y1168250D02*
D03*
Y1211750D02*
D03*
D27*
X845400Y1114200D02*
D03*
Y1139600D02*
D03*
Y1165000D02*
D03*
Y1190400D02*
D03*
Y1215800D02*
D03*
X820000Y1114200D02*
D03*
Y1139600D02*
D03*
Y1165000D02*
D03*
Y1190400D02*
D03*
D28*
Y1215800D02*
D03*
D29*
X817500Y779000D02*
D03*
Y896000D02*
D03*
D30*
Y815000D02*
D03*
Y860000D02*
D03*
D31*
X800000Y1250000D02*
D03*
X1370000D02*
D03*
Y780000D02*
D03*
D32*
X1220000Y1005000D02*
D03*
X1210000Y1032500D02*
D03*
X1205000Y1090000D02*
D03*
X1015000Y870000D02*
D03*
X1000000Y880000D02*
D03*
X1095000Y875000D02*
D03*
Y892500D02*
D03*
X1157500Y875000D02*
D03*
Y892500D02*
D03*
X932500Y912500D02*
D03*
X1285000Y1095000D02*
D03*
X1290000Y1062500D02*
D03*
X1300000Y1112500D02*
D03*
X1140000Y1137500D02*
D03*
X1182500Y1052500D02*
D03*
X1210000Y1115000D02*
D03*
X1172500Y1042500D02*
D03*
X1120000Y1035000D02*
D03*
X1092500Y1050000D02*
D03*
X1077500Y1040000D02*
D03*
X920000Y1092500D02*
D03*
X912500Y1060000D02*
D03*
X892500D02*
D03*
X922500Y1135000D02*
D03*
X895000Y1012500D02*
D03*
Y967500D02*
D03*
Y917500D02*
D03*
Y987500D02*
D03*
Y940000D02*
D03*
X912500Y1125000D02*
D03*
X887500Y1092500D02*
D03*
X880000Y1037500D02*
D03*
X915000Y1182500D02*
D03*
Y1170000D02*
D03*
X977500Y1220000D02*
D03*
X912500Y1217500D02*
D03*
X965000Y1145000D02*
D03*
X932500D02*
D03*
X1017500Y1130000D02*
D03*
X1007500Y800000D02*
D03*
X947500Y795000D02*
D03*
X850000Y967500D02*
D03*
X867500Y1037500D02*
D03*
X865000Y967500D02*
D03*
X877500D02*
D03*
X992500Y785000D02*
D03*
X1020000D02*
D03*
X1035000D02*
D03*
X1082500D02*
D03*
X1185000Y937500D02*
D03*
X862500Y1100000D02*
D03*
X810000Y1077500D02*
D03*
X820000Y1067500D02*
D03*
X935000Y1050000D02*
D03*
X985000Y1145000D02*
D03*
X1175000D02*
D03*
X1180000Y1207500D02*
D03*
X882500Y1142500D02*
D03*
X1042500Y1060000D02*
D03*
X1012500Y1050000D02*
D03*
X1025000Y1037500D02*
D03*
X932500Y795000D02*
D03*
X909200D02*
D03*
X877500Y802500D02*
D03*
X932500Y952500D02*
D03*
Y932500D02*
D03*
X977500Y940000D02*
D03*
X1040000Y965000D02*
D03*
X1012500D02*
D03*
X1087500D02*
D03*
X1135000Y940000D02*
D03*
X1172500Y1117500D02*
D03*
X1300000Y1232500D02*
D03*
Y1172500D02*
D03*
X1270000Y1140000D02*
D03*
X1300000Y1079656D02*
D03*
D33*
X1307500Y1022500D02*
D03*
M02*
