G04*
G04 #@! TF.GenerationSoftware,Altium Limited,Altium Designer,24.4.1 (13)*
G04*
G04 Layer_Physical_Order=2*
G04 Layer_Color=16711680*
%FSLAX44Y44*%
%MOMM*%
G71*
G04*
G04 #@! TF.SameCoordinates,79D782BA-BD90-4D4D-B637-5DB34664487F*
G04*
G04*
G04 #@! TF.FilePolarity,Positive*
G04*
G01*
G75*
%ADD35R,0.7500X1.0000*%
%ADD39R,2.8500X3.9500*%
%ADD40R,1.0000X0.7500*%
%ADD47C,0.3000*%
%ADD48O,2.0000X1.5400*%
%ADD49R,2.0000X1.5400*%
G04:AMPARAMS|DCode=50|XSize=4mm|YSize=1.5mm|CornerRadius=0.375mm|HoleSize=0mm|Usage=FLASHONLY|Rotation=180.000|XOffset=0mm|YOffset=0mm|HoleType=Round|Shape=RoundedRectangle|*
%AMROUNDEDRECTD50*
21,1,4.0000,0.7500,0,0,180.0*
21,1,3.2500,1.5000,0,0,180.0*
1,1,0.7500,-1.6250,0.3750*
1,1,0.7500,1.6250,0.3750*
1,1,0.7500,1.6250,-0.3750*
1,1,0.7500,-1.6250,-0.3750*
%
%ADD50ROUNDEDRECTD50*%
%ADD51C,1.5000*%
%ADD52C,3.0000*%
%ADD53C,0.8000*%
%ADD54C,0.7000*%
%ADD55O,0.3000X1.4000*%
%ADD56O,1.4000X0.3000*%
%ADD57R,3.9500X2.8500*%
D35*
X1036500Y890000D02*
D03*
X1053500D02*
D03*
X1101500Y1132500D02*
D03*
X1118500D02*
D03*
X1001000D02*
D03*
X984000D02*
D03*
X1053500D02*
D03*
X1036500D02*
D03*
X1126500Y865000D02*
D03*
X1143500D02*
D03*
X1126500Y905000D02*
D03*
X1143500D02*
D03*
X1126500Y885000D02*
D03*
X1143500D02*
D03*
X1126500Y845000D02*
D03*
X1143500D02*
D03*
X951000Y1072000D02*
D03*
X934000D02*
D03*
D39*
X1114250Y1175000D02*
D03*
X985750D02*
D03*
D40*
X1205000Y1059000D02*
D03*
Y1076000D02*
D03*
Y1003500D02*
D03*
Y986500D02*
D03*
Y963500D02*
D03*
Y946500D02*
D03*
X1007500Y839000D02*
D03*
Y856000D02*
D03*
X975000Y856000D02*
D03*
Y839000D02*
D03*
X977500Y906000D02*
D03*
Y889000D02*
D03*
D47*
X1206500Y1005000D02*
X1220000D01*
X1205000Y1003500D02*
X1206500Y1005000D01*
X1202500Y1090000D02*
X1205000Y1087500D01*
Y963500D02*
X1273500D01*
X1275000Y965000D02*
X1277500Y962500D01*
X1225000Y1015000D02*
X1275000Y965000D01*
X1273500Y963500D02*
X1275000Y965000D01*
X1277500Y962500D02*
X1277500D01*
Y921757D02*
Y962500D01*
X1206757Y1015000D02*
X1225000D01*
X1210000Y1032500D02*
X1252500D01*
X1200000Y1021757D02*
X1206757Y1015000D01*
X1200000Y1021757D02*
Y1027500D01*
X1203750Y1059000D02*
X1205000D01*
X1201500Y1056750D02*
X1203750Y1059000D01*
X1201500Y1055500D02*
Y1056750D01*
X1200000Y1054000D02*
X1201500Y1055500D01*
X1200000Y1027500D02*
Y1054000D01*
X1139500Y1027500D02*
X1200000D01*
X1252500Y1032500D02*
X1275000Y1055000D01*
X1205000Y1076000D02*
Y1087500D01*
X1101000Y856000D02*
X1110000Y865000D01*
X1007500Y856000D02*
X1101000D01*
X1110000Y865000D02*
X1126500D01*
X1015000Y870000D02*
X1088647D01*
X1093647Y875000D01*
X1095000D01*
X1082500Y880000D02*
X1095000Y892500D01*
X1000000Y880000D02*
X1082500D01*
X1157500Y875000D02*
X1162500D01*
X1157500Y892500D02*
X1165000Y885000D01*
X1162500Y875000D02*
X1165000Y872500D01*
X927500Y917500D02*
X932500Y912500D01*
X895000Y917500D02*
X927500D01*
X1290000Y1061147D02*
Y1062500D01*
X1282500Y872500D02*
X1292500Y882500D01*
X1290000Y1061147D02*
X1292500Y1058647D01*
Y882500D02*
Y1058647D01*
X1280000Y1040000D02*
X1285000Y1035000D01*
Y886757D02*
Y1035000D01*
X1165000Y885000D02*
X1283243D01*
X1285000Y886757D01*
X1280000Y1040000D02*
Y1063845D01*
X1285000Y1068845D01*
Y1095000D01*
X1165000Y872500D02*
X1282500D01*
X1275000Y1055000D02*
Y1116297D01*
X1214257Y1118054D02*
X1273243D01*
X1275000Y1116297D01*
X1211203Y1115000D02*
X1214257Y1118054D01*
X1210000Y1115000D02*
X1211203D01*
X1300000Y1079656D02*
Y1141000D01*
Y1079656D02*
X1307500Y1072156D01*
X1118500Y1133750D02*
Y1175000D01*
Y1133750D02*
X1120750Y1136000D01*
X1122000D01*
X1123500Y1137500D02*
X1140000D01*
X1118500Y1132500D02*
Y1133750D01*
X1122000Y1136000D02*
X1123500Y1137500D01*
X1167500Y1067500D02*
X1182500Y1052500D01*
X1139500Y1067500D02*
X1167500D01*
X1162625Y1062500D02*
X1172500Y1052625D01*
Y1042500D02*
Y1052625D01*
X1139500Y1062500D02*
X1162625D01*
X1270000Y1141000D02*
X1300000D01*
X1000375Y1133125D02*
X1003250Y1136000D01*
X933250Y1072750D02*
X934500Y1071500D01*
X976500Y890000D02*
X1036500D01*
X976500Y856000D02*
Y889000D01*
X1182500Y1032500D02*
X1192500Y1042500D01*
X1162500Y1032500D02*
X1182500D01*
X1157500Y1037500D02*
X1162500Y1032500D01*
X1120000Y1035000D02*
X1121353D01*
X1123853Y1032500D02*
X1139500D01*
X1121353Y1035000D02*
X1123853Y1032500D01*
X1096743Y1024257D02*
Y1026743D01*
X1098500Y1022500D02*
X1122500D01*
X1096743Y1026743D02*
X1122500Y1052500D01*
X1090000Y985000D02*
Y1032500D01*
X1096743Y1024257D02*
X1098500Y1022500D01*
X1122500Y982500D02*
Y1022500D01*
X1090000Y985000D02*
X1117500Y957500D01*
X1122500Y1052500D02*
Y1089500D01*
X1044257Y1032500D02*
X1090000D01*
X1117500Y1060000D02*
Y1089500D01*
X1090000Y1032500D02*
X1117500Y1060000D01*
X1092500Y1050000D02*
Y1051353D01*
X1087500Y1056353D02*
Y1089500D01*
Y1056353D02*
X1092500Y1051353D01*
X1082500Y1046353D02*
Y1089500D01*
X1077500Y1041353D02*
X1082500Y1046353D01*
X1077500Y1040000D02*
Y1041353D01*
X1117500Y1089500D02*
Y1110000D01*
X1101500D02*
X1117500D01*
X892500Y1060000D02*
X912500D01*
X900000Y1080000D02*
X905000Y1075000D01*
X888457Y1091543D02*
X895957D01*
X900000Y1087500D01*
Y1080000D02*
Y1087500D01*
X887500Y1092500D02*
X888457Y1091543D01*
X997500Y1075000D02*
X1065000D01*
X920000Y1092500D02*
X980000D01*
X997500Y1075000D01*
X1065000D02*
X1067500Y1077500D01*
Y1089500D01*
X912500Y1127500D02*
X940000Y1100000D01*
X992500Y1090000D02*
X1002500D01*
Y1089500D02*
Y1090000D01*
X940000Y1100000D02*
X982500D01*
X992500Y1090000D01*
X1000000Y1107500D02*
X1007500Y1100000D01*
Y1089500D02*
Y1100000D01*
X945000Y1107500D02*
X1000000D01*
X999757Y1131257D02*
X1001000Y1132500D01*
X972500Y1120000D02*
X995000D01*
X999757Y1124757D01*
Y1131257D01*
X932500Y1145000D02*
X947500D01*
X972500Y1120000D01*
X905000Y1075000D02*
X917500D01*
X927500Y1085000D01*
X955000D01*
X967500Y1072500D02*
X985500D01*
X955000Y1085000D02*
X967500Y1072500D01*
X923457Y1129043D02*
Y1134043D01*
Y1129043D02*
X945000Y1107500D01*
X922500Y1135000D02*
X923457Y1134043D01*
X912500Y1125000D02*
Y1127500D01*
X895000Y987500D02*
X895379D01*
X903321Y993321D02*
X952500Y1042500D01*
X895379Y987500D02*
X901200Y993321D01*
X895000Y967500D02*
X900000D01*
X895000Y940000D02*
X927141D01*
X895000Y1012500D02*
X912500D01*
X901200Y993321D02*
X903321D01*
X880000Y1037500D02*
Y1120000D01*
X957500Y1197500D01*
X977500Y940000D02*
X1002500D01*
X912500Y1012500D02*
X957500Y1057500D01*
X892500Y1215000D02*
X915000Y1192500D01*
Y1182500D02*
Y1192500D01*
X845400Y1190400D02*
X877100D01*
X897500Y1170000D01*
X915000D01*
X957500Y1212500D02*
X980000Y1235000D01*
X957500Y1197500D02*
Y1212500D01*
X980000Y1235000D02*
X1125000D01*
X965000Y1207500D02*
X977500Y1220000D01*
X846200Y1215000D02*
X892500D01*
X845400Y1215800D02*
X846200Y1215000D01*
X834000Y1227500D02*
X902500D01*
X912500Y1217500D01*
X820000Y1215800D02*
X822300D01*
X834000Y1227500D01*
X965000Y1145000D02*
Y1207500D01*
X1125000Y1235000D02*
X1152500Y1207500D01*
X932500Y1145000D02*
X933250Y1144250D01*
X934500Y1050500D02*
Y1071500D01*
X1026211Y1121289D02*
Y1121289D01*
Y1121289D02*
X1036464Y1111036D01*
X1058536D01*
X1017500Y1130000D02*
X1026211Y1121289D01*
X1003250Y1136000D02*
X1004500D01*
X1008500Y1140000D01*
X1029000D02*
X1033000Y1136000D01*
X1034250D01*
X1008500Y1140000D02*
X1029000D01*
X1034250Y1136000D02*
X1036500Y1133750D01*
Y1132500D02*
Y1133750D01*
X1072500Y1089500D02*
Y1097071D01*
X1058536Y1111036D02*
X1072500Y1097071D01*
X1053500Y1132500D02*
X1082500D01*
X935000Y782500D02*
X947500Y795000D01*
X892500Y784257D02*
Y812500D01*
Y784257D02*
X894257Y782500D01*
X935000D01*
X850000Y855000D02*
X892500Y812500D01*
X850000Y855000D02*
Y967500D01*
X865000Y860000D02*
Y967500D01*
Y860000D02*
X909200Y815800D01*
Y795000D02*
Y815800D01*
X957500Y775000D02*
X992500D01*
X957500D02*
Y854243D01*
X879257Y775000D02*
X957500D01*
X959257Y856000D02*
X975000D01*
X957500Y854243D02*
X959257Y856000D01*
X867500Y1037500D02*
Y1093647D01*
X862500Y1098647D02*
X867500Y1093647D01*
X862500Y1098647D02*
Y1100000D01*
X877500Y865000D02*
X932500Y810000D01*
X877500Y865000D02*
Y967500D01*
X906000Y889000D02*
X976500D01*
X887500Y907500D02*
X906000Y889000D01*
X887500Y907500D02*
Y952500D01*
X821757Y1025000D02*
X890000D01*
X820000Y1026757D02*
X821757Y1025000D01*
X887500Y952500D02*
Y1022500D01*
X820000Y1026757D02*
Y1067500D01*
X887500Y1022500D02*
X890000Y1025000D01*
X915000Y1050000D01*
X935000D01*
X887500Y952500D02*
X932500D01*
X820000Y1067500D02*
Y1114200D01*
X992500Y775000D02*
Y785000D01*
X1007500Y797500D02*
X1020000Y785000D01*
X1007500Y797500D02*
Y839000D01*
X1035000Y775000D02*
Y785000D01*
Y775000D02*
X1072500D01*
X1082500Y785000D01*
X1190000Y952500D02*
Y990000D01*
Y952500D02*
X1196000Y946500D01*
X1242500D01*
X1182500Y949257D02*
X1185000Y946757D01*
X1182500Y949257D02*
Y982500D01*
X1185000Y937500D02*
Y946757D01*
X1167500Y1012500D02*
X1190000Y990000D01*
X1192500Y987500D01*
X1157500Y1007500D02*
X1182500Y982500D01*
X1139500Y1007500D02*
X1157500D01*
X797500Y1185000D02*
X802900Y1190400D01*
X820000D01*
X797500Y1110000D02*
Y1185000D01*
Y1110000D02*
X810000Y1097500D01*
Y1077500D02*
Y1097500D01*
X957500Y1057500D02*
X985500D01*
X951000Y1070750D02*
X959250Y1062500D01*
X951000Y1070750D02*
Y1072000D01*
X959250Y1062500D02*
X985500D01*
X934500Y1050500D02*
X935000Y1050000D01*
X984000Y1132500D02*
X984500Y1133000D01*
Y1144500D02*
X985000Y1145000D01*
Y1174250D01*
X984500Y1133000D02*
Y1144500D01*
X985000Y1174250D02*
X985750Y1175000D01*
X1175000Y1145000D02*
X1180000Y1140000D01*
X1192500D01*
X1160000Y1187500D02*
X1180000Y1207500D01*
X1160000Y1147500D02*
Y1187500D01*
Y1147500D02*
X1182500Y1125000D01*
X1152500Y1137500D02*
X1172500Y1117500D01*
X1152500Y1137500D02*
Y1207500D01*
X1192500Y1042500D02*
Y1140000D01*
X1139500Y1037500D02*
X1157500D01*
X1092500Y1089500D02*
Y1122500D01*
X1082500Y1132500D02*
X1092500Y1122500D01*
X1182500Y1112500D02*
Y1125000D01*
X1170000Y1100000D02*
X1182500Y1112500D01*
X1122500Y1100000D02*
X1170000D01*
X877500Y776757D02*
Y802500D01*
Y776757D02*
X879257Y775000D01*
X1042500Y1034257D02*
Y1060000D01*
X1008500D02*
X1042500D01*
Y1034257D02*
X1044257Y1032500D01*
X1001000Y1067500D02*
X1008500Y1060000D01*
X1025000Y966757D02*
Y1037500D01*
Y966757D02*
X1026757Y965000D01*
X1040000D01*
X1307500Y1022500D02*
Y1072156D01*
X1205000Y1076000D02*
X1248250D01*
X1250000Y1074250D01*
X1139500Y1012500D02*
X1167500D01*
X1204000Y987500D02*
X1205000Y986500D01*
X1192500Y987500D02*
X1204000D01*
X1139500Y1017500D02*
X1173157D01*
X1187157Y1003500D02*
X1205000D01*
X1173157Y1017500D02*
X1187157Y1003500D01*
X1155000Y920000D02*
X1275743D01*
X1277500Y921757D01*
X992500Y775000D02*
X1035000D01*
X1142500Y920000D02*
X1155000D01*
Y977500D01*
X976500Y889000D02*
X977500D01*
X1122500Y952500D02*
X1135000Y940000D01*
X1122500Y952500D02*
Y967500D01*
X1135000Y937500D02*
Y940000D01*
X1117500Y935500D02*
Y957500D01*
X1122500Y967500D02*
X1139500D01*
X1122500Y972500D02*
X1139500D01*
X1122500D02*
Y982500D01*
Y967500D02*
Y972500D01*
X1087500Y952500D02*
X1110000D01*
X1004257D02*
X1087500D01*
Y965000D01*
X900000Y967500D02*
X965000Y1032500D01*
Y1035743D01*
X966757Y1037500D01*
X985500D01*
X952500Y1042500D02*
X985500D01*
X932500Y795000D02*
Y810000D01*
X1012500Y965000D02*
Y1050000D01*
X1110000Y952500D02*
X1112500Y950000D01*
X1002500Y940000D02*
Y950743D01*
X1004257Y952500D01*
X927141Y940000D02*
X932500Y934641D01*
Y932500D02*
Y934641D01*
X1300000Y1172500D02*
Y1232500D01*
Y1141000D02*
Y1172500D01*
X1067500Y890000D02*
Y935500D01*
X1053500Y890000D02*
X1067500D01*
X1007500Y906000D02*
Y935500D01*
X977500Y906000D02*
X1007500D01*
X1139500Y977500D02*
X1155000D01*
X1122500Y982500D02*
X1139500D01*
X1122500Y1022500D02*
X1139500D01*
X1142500Y920000D02*
X1143500Y919000D01*
X1117500Y922500D02*
X1120000Y920000D01*
X1142500D01*
X1143500Y905000D02*
Y919000D01*
X1112500Y935500D02*
Y950000D01*
Y910000D02*
Y935500D01*
X1114250Y1175000D02*
X1118500D01*
X1122500Y1089500D02*
Y1100000D01*
X975000Y839000D02*
X1007500D01*
X975000Y856000D02*
X976500D01*
X1101500Y1110000D02*
Y1132500D01*
X985500Y1067500D02*
X1001000D01*
X1117500Y922500D02*
Y935500D01*
Y905000D02*
X1126500D01*
X1112500Y910000D02*
X1117500Y905000D01*
X1126500Y885000D02*
Y905000D01*
Y865000D02*
Y885000D01*
Y845000D02*
Y865000D01*
X1143500Y885000D02*
Y905000D01*
Y865000D02*
Y885000D01*
Y845000D02*
Y865000D01*
X845400Y1139600D02*
X869600D01*
X872500Y1142500D02*
X882500D01*
X869600Y1139600D02*
X872500Y1142500D01*
X820000Y1114200D02*
X845400D01*
X820000D02*
Y1139600D01*
X845400D01*
D48*
Y1114200D02*
D03*
Y1139600D02*
D03*
Y1165000D02*
D03*
Y1190400D02*
D03*
Y1215800D02*
D03*
X820000Y1114200D02*
D03*
Y1139600D02*
D03*
Y1165000D02*
D03*
Y1190400D02*
D03*
D49*
Y1215800D02*
D03*
D50*
X817500Y779000D02*
D03*
Y896000D02*
D03*
D51*
Y815000D02*
D03*
Y860000D02*
D03*
D52*
X800000Y1250000D02*
D03*
X1370000D02*
D03*
Y780000D02*
D03*
D53*
X1220000Y1005000D02*
D03*
X1210000Y1032500D02*
D03*
X1205000Y1090000D02*
D03*
X1015000Y870000D02*
D03*
X1000000Y880000D02*
D03*
X1095000Y875000D02*
D03*
Y892500D02*
D03*
X1157500Y875000D02*
D03*
Y892500D02*
D03*
X932500Y912500D02*
D03*
X1285000Y1095000D02*
D03*
X1290000Y1062500D02*
D03*
X1300000Y1112500D02*
D03*
X1140000Y1137500D02*
D03*
X1182500Y1052500D02*
D03*
X1210000Y1115000D02*
D03*
X1172500Y1042500D02*
D03*
X1120000Y1035000D02*
D03*
X1092500Y1050000D02*
D03*
X1077500Y1040000D02*
D03*
X920000Y1092500D02*
D03*
X912500Y1060000D02*
D03*
X892500D02*
D03*
X922500Y1135000D02*
D03*
X895000Y1012500D02*
D03*
Y967500D02*
D03*
Y917500D02*
D03*
Y987500D02*
D03*
Y940000D02*
D03*
X912500Y1125000D02*
D03*
X887500Y1092500D02*
D03*
X880000Y1037500D02*
D03*
X915000Y1182500D02*
D03*
Y1170000D02*
D03*
X977500Y1220000D02*
D03*
X912500Y1217500D02*
D03*
X965000Y1145000D02*
D03*
X932500D02*
D03*
X1017500Y1130000D02*
D03*
X1007500Y800000D02*
D03*
X947500Y795000D02*
D03*
X850000Y967500D02*
D03*
X867500Y1037500D02*
D03*
X865000Y967500D02*
D03*
X877500D02*
D03*
X992500Y785000D02*
D03*
X1020000D02*
D03*
X1035000D02*
D03*
X1082500D02*
D03*
X1185000Y937500D02*
D03*
X862500Y1100000D02*
D03*
X810000Y1077500D02*
D03*
X820000Y1067500D02*
D03*
X935000Y1050000D02*
D03*
X985000Y1145000D02*
D03*
X1175000D02*
D03*
X1180000Y1207500D02*
D03*
X882500Y1142500D02*
D03*
X1042500Y1060000D02*
D03*
X1012500Y1050000D02*
D03*
X1025000Y1037500D02*
D03*
X932500Y795000D02*
D03*
X909200D02*
D03*
X877500Y802500D02*
D03*
X932500Y952500D02*
D03*
Y932500D02*
D03*
X977500Y940000D02*
D03*
X1040000Y965000D02*
D03*
X1012500D02*
D03*
X1087500D02*
D03*
X1135000Y940000D02*
D03*
X1172500Y1117500D02*
D03*
X1300000Y1232500D02*
D03*
Y1172500D02*
D03*
X1270000Y1140000D02*
D03*
X1300000Y1079656D02*
D03*
D54*
X1307500Y1022500D02*
D03*
D55*
X1002500Y935500D02*
D03*
X1007500D02*
D03*
X1012500D02*
D03*
X1017500D02*
D03*
X1022500D02*
D03*
X1027500D02*
D03*
X1032500D02*
D03*
X1037500D02*
D03*
X1042500D02*
D03*
X1047500D02*
D03*
X1052500D02*
D03*
X1057500D02*
D03*
X1062500D02*
D03*
X1067500D02*
D03*
X1117500D02*
D03*
X1107500D02*
D03*
X1102500D02*
D03*
X1097500D02*
D03*
X1112500D02*
D03*
X1092500D02*
D03*
X1087500D02*
D03*
X1082500D02*
D03*
X1077500D02*
D03*
X1072500D02*
D03*
X1122500D02*
D03*
X1002500Y1089500D02*
D03*
X1007500D02*
D03*
X1012500D02*
D03*
X1017500D02*
D03*
X1022500D02*
D03*
X1027500D02*
D03*
X1032500D02*
D03*
X1037500D02*
D03*
X1042500D02*
D03*
X1047500D02*
D03*
X1052500D02*
D03*
X1057500D02*
D03*
X1062500D02*
D03*
X1067500D02*
D03*
X1072500D02*
D03*
X1077500D02*
D03*
X1082500D02*
D03*
X1087500D02*
D03*
X1092500D02*
D03*
X1097500D02*
D03*
X1102500D02*
D03*
X1107500D02*
D03*
X1112500D02*
D03*
X1117500D02*
D03*
X1122500D02*
D03*
D56*
X1139500Y1072500D02*
D03*
Y1067500D02*
D03*
Y1062500D02*
D03*
Y1057500D02*
D03*
Y1052500D02*
D03*
Y1042500D02*
D03*
Y1037500D02*
D03*
Y1032500D02*
D03*
Y1047500D02*
D03*
Y1027500D02*
D03*
Y1022500D02*
D03*
Y1017500D02*
D03*
Y1012500D02*
D03*
Y1007500D02*
D03*
Y1002500D02*
D03*
Y997500D02*
D03*
Y992500D02*
D03*
Y987500D02*
D03*
Y982500D02*
D03*
Y977500D02*
D03*
Y972500D02*
D03*
Y967500D02*
D03*
Y962500D02*
D03*
Y957500D02*
D03*
Y952500D02*
D03*
X985500Y1072500D02*
D03*
Y1067500D02*
D03*
Y1062500D02*
D03*
Y1057500D02*
D03*
Y1052500D02*
D03*
Y1047500D02*
D03*
Y1042500D02*
D03*
Y1037500D02*
D03*
Y1032500D02*
D03*
Y1027500D02*
D03*
Y1022500D02*
D03*
Y1017500D02*
D03*
Y1012500D02*
D03*
Y1002500D02*
D03*
Y997500D02*
D03*
Y992500D02*
D03*
Y987500D02*
D03*
Y982500D02*
D03*
Y977500D02*
D03*
Y972500D02*
D03*
Y967500D02*
D03*
Y962500D02*
D03*
Y957500D02*
D03*
Y952500D02*
D03*
Y1007500D02*
D03*
D57*
X1250000Y1074250D02*
D03*
Y945750D02*
D03*
M02*
